HIERARCHY
ROOT pelvis
{
    OFFSET 0.0 95.64988708496094 0.0
    CHANNELS 6 Xposition Yposition Zposition Zrotation Yrotation Xrotation

    JOINT right_hip
    {
        OFFSET -6.595860481262207 -8.665519714355469 -0.628783106803894
        CHANNELS 3 Zrotation Yrotation Xrotation

        JOINT right_knee
        {
            OFFSET -4.881795883178711 -37.70364761352539 2.5827386379241943
            CHANNELS 3 Zrotation Yrotation Xrotation

            JOINT right_ankle
            {
                OFFSET 0.08588504791259766 -40.97898864746094 -11.777206420898438
                CHANNELS 3 Zrotation Yrotation Xrotation

                JOINT right_foot
                {
                    OFFSET -3.5826101303100586 -5.398246765136719 12.84481143951416
                    CHANNELS 3 Zrotation Yrotation Xrotation

                    End Site
                    {
                        OFFSET 0 0 0
                    }
                }
            }
        }
    }

    JOINT left_hip
    {
        OFFSET 6.204835891723633 -8.128570556640625 0.14874064922332764
        CHANNELS 3 Zrotation Yrotation Xrotation

        JOINT left_knee
        {
            OFFSET 1.1642322540283203 -39.53668212890625 -0.9895660281181335
            CHANNELS 3 Zrotation Yrotation Xrotation

            JOINT left_ankle
            {
                OFFSET -4.327999114990234 -41.99686050415039 -8.6507568359375
                CHANNELS 3 Zrotation Yrotation Xrotation

                JOINT left_foot
                {
                    OFFSET 1.1007122993469238 -4.456940650939941 13.713763236999512
                    CHANNELS 3 Zrotation Yrotation Xrotation

                    End Site
                    {
                        OFFSET 0 0 0
                    }
                }
            }
        }
    }

    JOINT spine1
    {
        OFFSET 0.23033809661865234 12.890144348144531 -3.385608196258545
        CHANNELS 3 Zrotation Yrotation Xrotation

        JOINT spine2
        {
            OFFSET -0.08110223710536957 14.185432434082031 0.8570325374603271
            CHANNELS 3 Zrotation Yrotation Xrotation

            JOINT spine3
            {
                OFFSET 0.029897883534431458 4.502716064453125 3.394036054611206
                CHANNELS 3 Zrotation Yrotation Xrotation

                JOINT right_collar
                {
                    OFFSET -7.221617221832275 12.050750732421875 -2.8773763179779053
                    CHANNELS 3 Zrotation Yrotation Xrotation

                    JOINT right_shoulder
                    {
                        OFFSET -12.106768608093262 -1.9866485595703125 0.09309959411621094
                        CHANNELS 3 Zrotation Yrotation Xrotation

                        JOINT right_elbow
                        {
                            OFFSET -3.4496097564697266 -25.921112060546875 -1.8638691902160645
                            CHANNELS 3 Zrotation Yrotation Xrotation

                            JOINT right_wrist
                            {
                                OFFSET -2.502317428588867 -25.19800567626953 9.920454025268555
                                CHANNELS 3 Zrotation Yrotation Xrotation

                                End Site
                                {
                                    OFFSET 0 0 0
                                }
                            }
                        }
                    }
                }

                JOINT left_collar
                {
                    OFFSET 7.319496154785156 11.361831665039062 -2.4574670791625977
                    CHANNELS 3 Zrotation Yrotation Xrotation

                    JOINT left_shoulder
                    {
                        OFFSET 12.880908966064453 -2.1121368408203125 0.015035510063171387
                        CHANNELS 3 Zrotation Yrotation Xrotation

                        JOINT left_elbow
                        {
                            OFFSET 3.104248046875 -25.336837768554688 -2.0244741439819336
                            CHANNELS 3 Zrotation Yrotation Xrotation

                            JOINT left_wrist
                            {
                                OFFSET 1.9859619140625 -24.5037841796875 10.173372268676758
                                CHANNELS 3 Zrotation Yrotation Xrotation

                                End Site
                                {
                                    OFFSET 0 0 0
                                }
                            }
                        }
                    }
                }

                JOINT neck
                {
                    OFFSET 0.3599180281162262 21.72100830078125 -2.6518373489379883
                    CHANNELS 3 Zrotation Yrotation Xrotation

                    JOINT head
                    {
                        OFFSET -0.011142075061798096 7.4417877197265625 6.859175682067871
                        CHANNELS 3 Zrotation Yrotation Xrotation

                        End Site
                        {
                            OFFSET 0 0 0
                        }
                    }
                }
            }
        }
    }

}

MOTION
Frames: 9
Frame Time: 0.050000
0.000000 95.649887 0.000000 0.000000 0.000000 0.000000 0.000000 0.000000 0.000000 0.000000 0.000000 0.000000 0.000000 0.000000 0.000000 0.000000 0.000000 0.000000 0.000000 0.000000 0.000000 0.000000 0.000000 0.000000 0.000000 0.000000 0.000000 0.000000 0.000000 0.000000 0.000000 0.000000 0.000000 0.000000 0.000000 0.000000 0.000000 0.000000 0.000000 0.000000 0.000000 0.000000 0.000000 0.000000 0.000000 0.000000 0.000000 0.000000 0.000000 0.000000 0.000000 0.000000 0.000000 0.000000 0.000000 0.000000 0.000000 0.000000 0.000000 0.000000 0.000000 0.000000 0.000000 0.000000 0.000000 0.000000 0.000000 0.000000 0.000000
0.504713 95.358879 0.233669 0.000000 0.000000 -0.000000 0.942538 1.568033 -6.285240 -0.514178 -0.546831 12.161304 -9.913005 0.845085 0.693579 0.000000 0.000000 -0.000000 0.128739 0.138634 0.206596 0.483280 0.552133 0.481361 9.110065 1.366648 -2.089062 0.000000 0.000000 -0.000000 0.331015 -0.301219 0.939586 -1.458649 0.556063 0.886789 0.000000 0.000000 -0.000000 -0.716775 -0.243385 -0.680305 0.429840 0.683866 1.846106 1.230453 0.982137 -1.110274 0.000000 0.000000 -0.000000 0.469435 -0.011390 -0.476705 0.028155 -0.259735 1.473705 0.509852 0.298085 -1.191025 0.000000 0.000000 -0.000000 -3.364953 1.462902 0.362807 0.000000 0.000000 -0.000000
0.880019 95.186493 0.638535 0.000000 0.000000 -0.000000 1.657937 2.701651 -12.292573 -1.711407 -2.665729 22.773921 -14.363518 0.225282 1.767560 0.000000 0.000000 -0.000000 -0.049239 -0.027947 0.784222 0.370586 0.475435 1.081907 14.055449 1.262949 -3.281412 0.000000 0.000000 -0.000000 0.934661 -0.836373 2.100582 -3.745925 1.420088 -0.245860 0.000000 0.000000 -0.000000 -0.195459 -1.703154 0.078818 1.672322 0.086271 2.509039 2.807970 2.145551 -3.421898 0.000000 0.000000 -0.000000 0.463446 -0.343444 -0.525265 -0.191439 -0.777675 1.860413 0.028152 -0.260921 -1.302111 0.000000 0.000000 -0.000000 -5.564172 2.396241 0.778037 0.000000 0.000000 -0.000000
1.139945 95.029091 1.241008 0.000000 0.000000 -0.000000 0.772413 2.457983 -16.779826 -2.335835 -2.485212 27.460621 -7.141333 1.278463 3.791071 0.000000 0.000000 -0.000000 0.570292 0.624667 0.989228 -0.574817 -0.851015 1.091832 30.709080 2.799535 -4.749804 0.000000 0.000000 -0.000000 0.873271 -0.777755 2.250331 -3.420856 1.200976 1.408462 0.000000 0.000000 -0.000000 0.164781 -2.256671 0.528967 2.300565 0.008366 1.566739 2.675626 2.073454 -2.948762 0.000000 0.000000 -0.000000 0.472533 -1.491677 -0.725817 0.734296 -0.898789 1.724802 -0.381756 -0.541615 -0.228536 0.000000 0.000000 -0.000000 -3.945987 1.706853 0.583409 0.000000 0.000000 -0.000000
1.286990 95.017685 2.128854 0.000000 0.000000 -0.000000 0.752363 2.697586 -19.578297 -2.820089 -2.637534 26.910738 -3.147316 0.908063 3.340494 0.000000 0.000000 -0.000000 0.781525 0.886785 1.921367 -0.778165 -1.033170 0.946236 25.920070 2.092686 -4.552049 0.000000 0.000000 -0.000000 0.659160 -0.579920 2.503564 -2.818158 1.053513 0.533595 0.000000 0.000000 -0.000000 -0.095179 -3.250659 0.423005 2.986134 -0.022703 2.671657 3.519933 2.576784 -3.916002 0.000000 0.000000 -0.000000 1.140864 -2.069479 -1.498442 1.478719 -1.253452 2.112627 0.485043 0.173455 0.420619 0.000000 0.000000 -0.000000 -2.040213 0.883485 0.545339 0.000000 0.000000 -0.000000
1.331463 95.032219 3.230495 0.000000 0.000000 -0.000000 0.637618 2.807170 -21.647262 -3.165829 -2.212759 22.256773 3.150700 -1.209944 3.154687 0.000000 0.000000 -0.000000 0.417902 0.537162 2.860267 -0.458801 -0.486452 1.518565 23.497026 1.321013 -5.221797 0.000000 0.000000 -0.000000 0.889999 -0.791726 2.309992 -3.456172 1.195177 1.664247 0.000000 0.000000 -0.000000 -0.808991 -3.432905 -0.266052 3.038020 0.436034 4.113407 4.868203 3.446173 -3.731976 0.000000 0.000000 -0.000000 1.922139 -3.000097 -2.445184 2.782334 -1.353334 3.230808 -0.524456 -0.298977 0.845052 0.000000 0.000000 -0.000000 -4.678992 1.999477 1.106442 0.000000 0.000000 -0.000000
1.287387 94.955421 4.567316 0.000000 0.000000 -0.000000 0.700414 2.911980 -22.392439 -3.310836 -1.661210 14.676976 14.344754 -3.031217 1.864518 0.000000 0.000000 -0.000000 0.421745 0.580628 3.859024 -0.628002 -0.597745 1.588861 18.991740 0.053540 -5.738768 0.000000 0.000000 -0.000000 1.174547 -1.048484 2.332028 -3.854772 1.185342 2.743487 0.000000 0.000000 -0.000000 -0.627910 -2.974179 -0.155450 2.800914 0.368076 4.932049 4.455142 3.260159 -3.179793 0.000000 0.000000 -0.000000 1.657853 -3.539110 -2.272854 3.468220 -0.918483 2.882335 -0.437431 -0.113985 1.751265 0.000000 0.000000 -0.000000 -5.144181 2.165756 1.738613 0.000000 0.000000 -0.000000
1.150728 94.808487 6.181762 0.000000 0.000000 -0.000000 0.825978 3.001877 -22.528267 -3.390063 -1.074050 5.202176 28.196378 -7.138479 1.726323 0.000000 0.000000 -0.000000 0.025580 0.195070 5.370009 -0.282446 0.297503 0.607533 15.211635 -0.421776 -5.799118 0.000000 0.000000 -0.000000 2.564148 -2.286070 2.735584 -3.694011 0.464432 2.827926 0.000000 0.000000 -0.000000 -0.558230 -3.044709 -0.074472 3.176399 0.627773 5.625283 4.327453 3.317765 -2.764681 0.000000 0.000000 -0.000000 1.726828 -3.572399 -2.348120 3.868673 -0.504951 3.328024 0.566538 0.791594 2.287917 0.000000 0.000000 -0.000000 -3.756074 1.609271 0.996493 0.000000 0.000000 -0.000000
0.895186 94.487679 8.072011 0.000000 0.000000 -0.000000 0.533213 2.775930 -22.036410 -2.533098 0.229155 -3.922208 58.449625 -9.774025 2.488717 0.000000 0.000000 -0.000000 -0.052890 0.151262 6.766088 -0.197198 0.637469 0.618361 8.810677 -1.667245 -5.852225 0.000000 0.000000 -0.000000 3.399284 -3.017677 3.043786 -2.403510 -0.492693 2.931421 0.000000 0.000000 -0.000000 -0.154812 -2.293874 0.213324 2.945903 0.604654 6.448143 3.199184 2.765433 -3.213215 0.000000 0.000000 -0.000000 2.186486 -2.871592 -2.688880 3.571387 -0.543847 3.738944 0.694387 1.118234 3.210836 0.000000 0.000000 -0.000000 -1.327233 0.565774 1.300152 0.000000 0.000000 -0.000000
